<svg width="106" height="106" viewBox="0 0 106 106" fill="none" xmlns="http://www.w3.org/2000/svg">
<g filter="url(#filter0_d_407_140)">
<rect x="24" y="20" width="58" height="58" fill="white"/>
<path d="M66.5081 58.0472L61.5304 63.0248L54.7932 56.2876L57.7598 49.2988L66.5081 58.0472Z" fill="#FF4836"/>
<path d="M52.8754 29.667C49.0765 29.6666 45.3628 30.7929 42.204 32.9032C39.0451 35.0136 36.5831 38.0132 35.1291 41.5229C33.6752 45.0326 33.2947 48.8946 34.0357 52.6206C34.7768 56.3465 36.6061 59.769 39.2923 62.4552C41.9786 65.1415 45.4011 66.9708 49.127 67.7119C52.853 68.4529 56.715 68.0724 60.2247 66.6185C63.7343 65.1645 66.734 62.7024 68.8444 59.5436C70.9547 56.3848 72.0809 52.6711 72.0806 48.8721C72.0806 43.7786 70.0572 38.8937 66.4555 35.2921C62.8539 31.6904 57.9689 29.667 52.8754 29.667ZM61.4777 57.4797C59.4874 59.4703 56.8685 60.7092 54.0672 60.9853C51.2659 61.2614 48.4554 60.5577 46.1148 58.994C43.7742 57.4303 42.0482 55.1035 41.2308 52.4098C40.4135 49.7162 40.5554 46.8225 41.6323 44.2218C42.7093 41.6211 44.6548 39.4742 47.1372 38.147C49.6196 36.8199 52.4853 36.3945 55.2462 36.9434C58.0071 37.4923 60.4922 38.9815 62.2782 41.1573C64.0642 43.333 65.0405 46.0608 65.0407 48.8757C65.0453 50.4742 64.7327 52.0577 64.1211 53.5346C63.5095 55.0115 62.611 56.3524 61.4777 57.4797Z" fill="black"/>
<path d="M72.0805 68.0806H60.4131C63.1979 67.1888 65.719 65.6221 67.7519 63.5202C69.7847 61.4183 71.2663 58.8463 72.0646 56.0332L72.0805 68.0806Z" fill="#FF4836"/>
</g>
<defs>
<filter id="filter0_d_407_140" x="0" y="0" width="106" height="106" filterUnits="userSpaceOnUse" color-interpolation-filters="sRGB">
<feFlood flood-opacity="0" result="BackgroundImageFix"/>
<feColorMatrix in="SourceAlpha" type="matrix" values="0 0 0 0 0 0 0 0 0 0 0 0 0 0 0 0 0 0 127 0" result="hardAlpha"/>
<feOffset dy="4"/>
<feGaussianBlur stdDeviation="12"/>
<feComposite in2="hardAlpha" operator="out"/>
<feColorMatrix type="matrix" values="0 0 0 0 0 0 0 0 0 0 0 0 0 0 0 0 0 0 0.15 0"/>
<feBlend mode="normal" in2="BackgroundImageFix" result="effect1_dropShadow_407_140"/>
<feBlend mode="normal" in="SourceGraphic" in2="effect1_dropShadow_407_140" result="shape"/>
</filter>
</defs>
</svg>
