<svg width="32" height="21" viewBox="0 0 32 21" fill="none" xmlns="http://www.w3.org/2000/svg">
<path fill-rule="evenodd" clip-rule="evenodd" d="M10.1355 12.27V8.93279H19.3706C19.4544 9.41946 19.5243 9.90613 19.5243 10.5458C19.5243 16.1077 15.7799 20.0567 10.1355 20.0567C4.72853 20.0567 0.355469 15.7045 0.355469 10.3233C0.355469 4.94208 4.72853 0.589844 10.1355 0.589844C12.7761 0.589844 14.9836 1.54928 16.6881 3.13444L14.0335 5.67904C13.307 4.98379 12.0356 4.17731 10.1355 4.17731C6.7963 4.17731 4.07187 6.93048 4.07187 10.3233C4.07187 13.7161 6.7963 16.4692 10.1355 16.4692C14.0056 16.4692 15.4586 13.7022 15.6821 12.27H10.1355ZM28.294 8.93495H31.0883V11.7159H28.294V14.4969H25.4997V11.7159H22.7054V8.93495H25.4997V6.15397H28.294V8.93495Z" fill="white"/>
</svg>
