<svg width="19" height="20" viewBox="0 0 19 20" fill="none" xmlns="http://www.w3.org/2000/svg">
<path d="M8.79748 0C14.2395 0.0675149 17.6975 4.95716 16.0744 9.69359C15.2497 12.0982 13.6892 13.9951 11.8491 15.6855C11.1316 16.3451 10.337 16.9203 9.57901 17.5357C9.32025 17.746 9.06801 17.7811 8.78049 17.5734C6.43328 15.8751 4.36183 13.9198 2.96344 11.3529C1.72449 9.08076 1.35986 6.71254 2.49295 4.30148C3.81423 1.49182 6.12093 0.115554 8.79748 0ZM12.3484 7.28123C12.3366 5.49987 10.9251 4.09634 9.14904 4.10023C7.37426 4.10283 5.9458 5.53233 5.95757 7.29161C5.97064 9.05999 7.39255 10.4505 9.18433 10.4466C10.9291 10.444 12.3588 9.01324 12.3484 7.28123Z" fill="#243153"/>
<path d="M9.24908 20.0002C6.99074 19.9768 4.73893 19.8612 2.56031 19.2069C1.95652 19.0251 1.35404 18.7784 0.816896 18.4551C-0.262612 17.8046 -0.270454 16.7789 0.782916 16.0869C1.79708 15.4195 2.96546 15.1521 4.14821 14.9781C4.30635 14.9547 4.505 15.2066 4.68535 15.3312C4.55074 15.5039 4.4488 15.774 4.27498 15.8311C3.5039 16.0895 2.69231 16.2362 1.93561 16.5257C1.56053 16.6686 1.26909 17.0321 0.939745 17.2957C1.26909 17.5411 1.56576 17.8618 1.933 18.0176C3.49998 18.6823 5.17544 18.8927 6.85482 19.0069C9.48563 19.1848 12.1151 19.1341 14.6989 18.5382C15.3929 18.3785 16.0712 18.1227 16.7311 17.8527C16.9781 17.7514 17.1572 17.4839 17.3663 17.2931C17.1546 17.084 16.9808 16.7854 16.7259 16.6815C16.0189 16.3959 15.2792 16.1882 14.5499 15.9596C14.3486 15.896 14.1042 15.9142 13.9383 15.8064C13.7906 15.7104 13.6272 15.4754 13.6508 15.3312C13.6743 15.1884 13.9409 14.9599 14.0703 14.9781C15.4347 15.1689 16.7873 15.4403 17.8708 16.3725C18.4615 16.8802 18.5033 17.6371 17.8864 18.1058C17.2918 18.5577 16.5913 18.9303 15.879 19.1614C13.7318 19.8573 11.4917 19.9651 9.24908 20.0002Z" fill="#243153"/>
</svg>
