<svg width="12" height="18" viewBox="0 0 12 18" fill="none" xmlns="http://www.w3.org/2000/svg">
<path d="M10.8409 0.503926V0.502066C10.5214 0.180883 10.0871 0.00018595 9.63409 0H1.70702C0.765511 0.00306818 0.00306818 0.765511 0 1.70702V16.2911C0.00018595 16.7441 0.180883 17.1784 0.502066 17.4979C0.821111 17.8187 1.25465 17.9993 1.70702 18H9.63595C10.0883 17.9993 10.5219 17.8187 10.8409 17.4979C11.1616 17.1789 11.3423 16.7453 11.343 16.293V1.70888C11.3423 1.25651 11.1616 0.82297 10.8409 0.503926ZM5.67149 16.8415C5.41678 16.8415 5.21033 16.6351 5.21033 16.3804C5.21033 16.1257 5.41678 15.9192 5.67149 15.9192C5.92619 15.9192 6.13265 16.1257 6.13265 16.3804C6.13265 16.6351 5.92619 16.8415 5.67149 16.8415ZM9.9874 13.9463C9.9874 14.5625 9.48789 15.062 8.87169 15.062H2.46942C1.85323 15.062 1.35372 14.5625 1.35372 13.9463V3.07748C1.35372 2.46129 1.85323 1.96178 2.46942 1.96178H8.87355C9.48975 1.96178 9.98926 2.46129 9.98926 3.07748L9.9874 13.9463Z" fill="#243153"/>
</svg>
