<svg width="50" height="50" viewBox="0 0 50 50" fill="none" xmlns="http://www.w3.org/2000/svg">
<rect width="50" height="50" rx="25" fill="url(#paint0_linear_810_6)"/>
<path fill-rule="evenodd" clip-rule="evenodd" d="M20.1739 26.762V23.9729H27.8925C27.9625 24.3796 28.0209 24.7864 28.0209 25.321C28.0209 29.9695 24.8915 33.27 20.1739 33.27C15.6549 33.27 12 29.6325 12 25.135C12 20.6375 15.6549 17 20.1739 17C22.3809 17 24.2259 17.8019 25.6505 19.1267L23.4318 21.2535C22.8246 20.6724 21.762 19.9983 20.1739 19.9983C17.3831 19.9983 15.1061 22.2994 15.1061 25.135C15.1061 27.9707 17.3831 30.2717 20.1739 30.2717C23.4085 30.2717 24.6229 27.959 24.8097 26.762H20.1739ZM35.3514 23.9753H37.6868V26.2996H35.3514V28.6239H33.016V26.2996H30.6806V23.9753H33.016V21.651H35.3514V23.9753Z" fill="white"/>
<defs>
<linearGradient id="paint0_linear_810_6" x1="25" y1="0" x2="25" y2="50" gradientUnits="userSpaceOnUse">
<stop stop-color="#F9A48D"/>
<stop offset="1" stop-color="#F8C77A"/>
</linearGradient>
</defs>
</svg>
