<svg width="19" height="14" viewBox="0 0 19 14" fill="none" xmlns="http://www.w3.org/2000/svg">
<path d="M18.4108 0.932617L12.7773 6.5298L18.4108 12.127C18.5126 11.9141 18.5744 11.6788 18.5744 11.4275V1.63205C18.5744 1.38074 18.5126 1.14547 18.4108 0.932617Z" fill="#243153"/>
<path d="M16.9418 0H1.63181C1.3805 0 1.14523 0.0617842 0.932373 0.163621L8.13253 7.3275C8.76916 7.96413 9.80444 7.96413 10.4411 7.3275L17.6412 0.163621C17.4284 0.0617842 17.1931 0 16.9418 0Z" fill="#243153"/>
<path d="M0.163621 0.932617C0.0617842 1.14547 0 1.38074 0 1.63205V11.4275C0 11.6789 0.0617842 11.9142 0.163621 12.127L5.79708 6.5298L0.163621 0.932617Z" fill="#243153"/>
<path d="M12.0078 7.29883L11.2106 8.096C10.1498 9.15678 8.42375 9.15678 7.36297 8.096L6.56583 7.29883L0.932373 12.896C1.14523 12.9978 1.3805 13.0596 1.63181 13.0596H16.9418C17.1931 13.0596 17.4284 12.9978 17.6412 12.896L12.0078 7.29883Z" fill="#243153"/>
</svg>
