<svg width="50" height="50" viewBox="0 0 50 50" fill="none" xmlns="http://www.w3.org/2000/svg">
<rect width="50" height="50" rx="25" fill="url(#paint0_linear_810_7)"/>
<path fill-rule="evenodd" clip-rule="evenodd" d="M19.8474 16.2362C19.8194 14.9668 18.9117 14 17.4377 14C15.9637 14 15 14.9668 15 16.2362C15 17.4793 15.9352 18.4739 17.3818 18.4739H17.4093C18.9117 18.4739 19.8474 17.4793 19.8474 16.2362ZM19.5656 20.2401H15.2568V33.1864H19.5656V20.2401ZM30.1394 19.933C32.9748 19.933 35.1005 21.7838 35.1005 25.7603L35.1003 33.1833H30.7917V26.257C30.7917 24.5173 30.1682 23.3302 28.6083 23.3302C27.4179 23.3302 26.7089 24.1305 26.3975 24.9034C26.2835 25.1805 26.2556 25.5664 26.2556 25.9534V33.1836H21.9462C21.9462 33.1836 22.003 21.4522 21.9462 20.2374H26.2556V22.0711C26.8275 21.1896 27.8517 19.933 30.1394 19.933Z" fill="white"/>
<defs>
<linearGradient id="paint0_linear_810_7" x1="25" y1="0" x2="25" y2="50" gradientUnits="userSpaceOnUse">
<stop stop-color="#F9A48D"/>
<stop offset="1" stop-color="#F8C77A"/>
</linearGradient>
</defs>
</svg>
