<svg width="50" height="50" viewBox="0 0 50 50" fill="none" xmlns="http://www.w3.org/2000/svg">
<rect width="50" height="50" rx="25" fill="url(#paint0_linear_810_5)"/>
<path fill-rule="evenodd" clip-rule="evenodd" d="M24.6595 21.3581L24.7026 22.0667L23.9839 21.98C21.3678 21.6474 19.0823 20.5194 17.1418 18.6249L16.1931 17.6849L15.9487 18.3791C15.4312 19.9264 15.7618 21.5606 16.8399 22.6597C17.4149 23.267 17.2855 23.3538 16.2937 22.9923C15.9487 22.8766 15.6468 22.7898 15.6181 22.8332C15.5175 22.9344 15.8625 24.2504 16.1356 24.771C16.5093 25.4941 17.2711 26.2027 18.1048 26.6221L18.8092 26.9547L17.9755 26.9692C17.1705 26.9692 17.1418 26.9836 17.228 27.2873C17.5155 28.2273 18.6511 29.2251 19.916 29.659L20.8072 29.9627L20.031 30.4254C18.881 31.0907 17.5299 31.4667 16.1787 31.4956C15.5318 31.5101 15 31.5679 15 31.6113C15 31.7559 16.7537 32.5657 17.7742 32.8839C20.8359 33.8239 24.4726 33.419 27.2037 31.8137C29.1442 30.6713 31.0848 28.4008 31.9903 26.2027C32.4791 25.0313 32.9678 22.891 32.9678 21.8643C32.9678 21.1991 33.0109 21.1123 33.8159 20.3169C34.2902 19.8541 34.7358 19.348 34.8221 19.2034C34.9658 18.9286 34.9514 18.9286 34.2184 19.1745C32.9965 19.6083 32.8241 19.5505 33.4278 18.8997C33.8734 18.4369 34.4052 17.5982 34.4052 17.3523C34.4052 17.3089 34.1896 17.3812 33.9452 17.5114C33.6865 17.656 33.1115 17.8729 32.6803 18.0031L31.9041 18.2489L31.1998 17.7717C30.8117 17.5114 30.2654 17.2222 29.978 17.1354C29.2449 16.9329 28.1237 16.9619 27.4625 17.1932C25.6657 17.844 24.5301 19.5215 24.6595 21.3581Z" fill="white"/>
<defs>
<linearGradient id="paint0_linear_810_5" x1="25" y1="0" x2="25" y2="50" gradientUnits="userSpaceOnUse">
<stop stop-color="#F9A48D"/>
<stop offset="1" stop-color="#F8C77A"/>
</linearGradient>
</defs>
</svg>
