<svg width="25" height="23" viewBox="0 0 25 23" fill="none" xmlns="http://www.w3.org/2000/svg">
<path fill-rule="evenodd" clip-rule="evenodd" d="M6.59674 2.67558C6.56328 1.1568 5.47719 0 3.71354 0C1.94989 0 0.796875 1.1568 0.796875 2.67558C0.796875 4.16291 1.91581 5.35302 3.64661 5.35302H3.67956C5.47719 5.35302 6.59674 4.16291 6.59674 2.67558ZM6.2608 7.46635H1.10534V22.9564H6.2608V7.46635ZM18.9099 7.09946C22.3024 7.09946 24.8457 9.31384 24.8457 14.0717L24.8455 22.9532H19.6903V14.666C19.6903 12.5845 18.9443 11.1641 17.078 11.1641C15.6537 11.1641 14.8053 12.1216 14.4327 13.0465C14.2964 13.378 14.2629 13.8398 14.2629 14.3027V22.9536H9.10684C9.10684 22.9536 9.17479 8.91711 9.10684 7.4636H14.2629V9.65763C14.9472 8.60292 16.1727 7.09946 18.9099 7.09946Z" fill="white"/>
</svg>
