<svg width="113" height="113" viewBox="0 0 113 113" fill="none" xmlns="http://www.w3.org/2000/svg">
<g filter="url(#filter0_d_407_122)">
<rect x="24" y="20" width="65" height="65" rx="32.5" fill="white"/>
<path d="M70.6564 61.9788L65.4364 67.1987L58.3713 60.1336L61.4823 52.8047L70.6564 61.9788Z" fill="#FF4836"/>
<path d="M56.3601 32.2168C52.3763 32.2164 48.4818 33.3975 45.1693 35.6105C41.8567 37.8236 39.2748 40.9692 37.7501 44.6497C36.2254 48.3302 35.8264 52.3802 36.6035 56.2874C37.3806 60.1947 39.2989 63.7838 42.1159 66.6008C44.9329 69.4177 48.522 71.3361 52.4292 72.1132C56.3365 72.8903 60.3865 72.4913 64.067 70.9666C67.7474 69.4419 70.8931 66.86 73.1062 63.5474C75.3192 60.2349 76.5002 56.3404 76.4999 52.3566C76.4999 47.0152 74.378 41.8926 70.6011 38.1156C66.8241 34.3387 61.7015 32.2168 56.3601 32.2168ZM65.381 61.3831C63.2938 63.4705 60.5475 64.7697 57.6098 65.0593C54.6722 65.3489 51.725 64.6109 49.2704 62.9711C46.8159 61.3313 45.0059 58.8912 44.1487 56.0665C43.2916 53.2417 43.4404 50.2072 44.5698 47.4799C45.6992 44.7526 47.7393 42.5013 50.3425 41.1096C52.9457 39.7178 55.951 39.2717 58.8462 39.8473C61.7415 40.4229 64.3475 41.9846 66.2204 44.2663C68.0933 46.5479 69.1171 49.4084 69.1174 52.3603C69.1222 54.0366 68.7944 55.6972 68.153 57.246C67.5116 58.7947 66.5695 60.2009 65.381 61.3831Z" fill="black"/>
<path d="M76.4998 72.5H64.2646C67.185 71.5647 69.8288 69.9218 71.9606 67.7176C74.0924 65.5133 75.646 62.8162 76.4832 59.8662L76.4998 72.5Z" fill="#FF4836"/>
</g>
<defs>
<filter id="filter0_d_407_122" x="0" y="0" width="113" height="113" filterUnits="userSpaceOnUse" color-interpolation-filters="sRGB">
<feFlood flood-opacity="0" result="BackgroundImageFix"/>
<feColorMatrix in="SourceAlpha" type="matrix" values="0 0 0 0 0 0 0 0 0 0 0 0 0 0 0 0 0 0 127 0" result="hardAlpha"/>
<feOffset dy="4"/>
<feGaussianBlur stdDeviation="12"/>
<feComposite in2="hardAlpha" operator="out"/>
<feColorMatrix type="matrix" values="0 0 0 0 0 0 0 0 0 0 0 0 0 0 0 0 0 0 0.15 0"/>
<feBlend mode="normal" in2="BackgroundImageFix" result="effect1_dropShadow_407_122"/>
<feBlend mode="normal" in="SourceGraphic" in2="effect1_dropShadow_407_122" result="shape"/>
</filter>
</defs>
</svg>
