<svg width="20" height="17" viewBox="0 0 20 17" fill="none" xmlns="http://www.w3.org/2000/svg">
<path fill-rule="evenodd" clip-rule="evenodd" d="M9.65949 4.35813L9.70261 5.06674L8.9839 4.97997C6.36779 4.64736 4.08228 3.51937 2.14176 1.62492L1.19306 0.684926L0.9487 1.37907C0.431227 2.92645 0.761835 4.56059 1.8399 5.65966C2.41487 6.26704 2.2855 6.35381 1.29368 5.99227C0.9487 5.87658 0.646841 5.78981 0.618092 5.83319C0.517472 5.93442 0.862454 7.25041 1.13556 7.77103C1.50929 8.4941 2.27113 9.20271 3.10483 9.62209L3.80917 9.9547L2.97547 9.96916C2.17051 9.96916 2.14176 9.98363 2.22801 10.2873C2.51549 11.2273 3.65106 12.2251 4.91599 12.659L5.80719 12.9627L5.03098 13.4254C3.88104 14.0907 2.52987 14.4667 1.17869 14.4956C0.531847 14.5101 0 14.5679 0 14.6113C0 14.7559 1.75366 15.5657 2.77423 15.8839C5.83594 16.8239 9.47262 16.419 12.2037 14.8137C14.1442 13.6713 16.0848 11.4008 16.9903 9.20271C17.4791 8.03133 17.9678 5.89104 17.9678 4.86428C17.9678 4.19905 18.0109 4.11228 18.8159 3.31691C19.2902 2.85414 19.7358 2.34799 19.8221 2.20338C19.9658 1.92861 19.9514 1.92861 19.2184 2.17445C17.9965 2.6083 17.8241 2.55045 18.4278 1.89969C18.8734 1.43692 19.4052 0.598157 19.4052 0.352313C19.4052 0.308929 19.1896 0.381236 18.9452 0.511389C18.6865 0.656003 18.1115 0.872924 17.6803 1.00308L16.9041 1.24892L16.1998 0.771694C15.8117 0.511389 15.2654 0.22216 14.978 0.135392C14.2449 -0.0670685 13.1237 -0.0381456 12.4625 0.193237C10.6657 0.844002 9.53012 2.52153 9.65949 4.35813Z" fill="white"/>
</svg>
